<?xml version="1.0" encoding="UTF-8" standalone="no"?>
<!-- Created with Inkscape (http://www.inkscape.org/) -->

<svg
   width="25mm"
   height="53mm"
   version="1.1"
   viewBox="0 0 25 53"
   id="svg71053"
   sodipodi:docname="cuctus-1.svg"
   inkscape:version="1.2 (dc2aedaf03, 2022-05-15)"
   xmlns:inkscape="http://www.inkscape.org/namespaces/inkscape"
   xmlns:sodipodi="http://sodipodi.sourceforge.net/DTD/sodipodi-0.dtd"
   xmlns="http://www.w3.org/2000/svg"
   xmlns:svg="http://www.w3.org/2000/svg">
  <defs
     id="defs71057" />
  <sodipodi:namedview
     id="namedview71055"
     pagecolor="#ffffff"
     bordercolor="#000000"
     borderopacity="0.25"
     inkscape:showpageshadow="2"
     inkscape:pageopacity="0.0"
     inkscape:pagecheckerboard="0"
     inkscape:deskcolor="#d1d1d1"
     inkscape:document-units="mm"
     showgrid="false"
     inkscape:zoom="5.9797775"
     inkscape:cx="19.14787"
     inkscape:cy="16.5558"
     inkscape:window-width="1412"
     inkscape:window-height="1041"
     inkscape:window-x="110"
     inkscape:window-y="16"
     inkscape:window-maximized="0"
     inkscape:current-layer="g71051" />
  <g
     fill="#509726"
     fill-opacity="0.88"
     fill-rule="evenodd"
     id="g71051"
     transform="translate(0.1,0.05414369)">
    <path
       d="m 10.7875,52.9 c 0,0 -1.0756947,-3.562778 -1.3805,-5.3933 C 8.5624613,42.434784 8.2370228,35.731267 8.1833328,32.130067 5.2384328,32.630407 3.4749974,32.003749 1.855,30.374 -0.17790511,28.328859 -0.29274716,25.30568 0.43133284,22.29118 c 0.72411996,-3.0145 2.06353326,-5.1454 3.25083326,-4.7903 1.1873,0.35511 2.063,3.196 2.0339,5.4767 -0.029013,2.2807 -0.4333433,4.0018 -0.1632433,4.9836 0.2701,0.9818 0.91411,1.753467 2.38751,1.996067 -0.50295,-4.6597 -0.2765228,-9.848067 -0.084333,-14.254167 0.19214,-4.4058 1.1790128,-8.5573 1.8401128,-11.089 0.6611304,-2.5317 1.0961004,-3.4434 1.7599004,-3.8992 0.66377,-0.45588 1.5561,-0.45585 2.1771,-0.044352 0.62107,0.4115 0.971,1.2342 1.5665,3.7658 0.59546,2.5317 1.287271,7.604998 1.525387,11.447033 0.198736,3.206624 0.07687,6.030586 -0.08367,9.637967 1.7101,-0.54855 2.7915,-1.0971 3.0356,-2.7758 0.24408,-1.6786 -0.448593,-4.4873 -0.391823,-7.5368 0.05677,-3.0495 1.3924,-6.3389 2.6783,-6.1574 1.2858,0.18149 2.232291,2.329524 2.736591,6.067524 0.5043,3.738 0.03752,9.065976 -1.552958,10.967376 -1.5905,1.9014 -3.71561,1.8807 -6.66971,1.8599 -0.04267,3.7443 -0.463961,13.339421 -1.41933,19.529728 C 14.73332,49.579619 13.531333,52.9 13.531333,52.9 Z"
       style="paint-order:fill markers stroke"
       id="path71041"
       sodipodi:nodetypes="cscscccsccccccacssssccscc" />
    <g
       stroke="#246f1f"
       stroke-width="0.1"
       id="g71049">
      <path
         d="M 12.52,53.199856 C 13.03425,52.891146 13.307146,45.181252 13.551,41.161 13.804059,36.989 13.893807,33.0839 13.998967,28.63 14.104127,24.1766 14.299005,20.203071 14.19,15.991 14.099648,12.499699 13.86112,9.0096958 13.49,5.537 13.324911,3.9922044 13.02415,1.5461563 12.81163,0.92585631 12.59911,0.30555631 12.22619,0.46896 11.89352,1.21451 c -0.33267,0.74555 -0.63789,2.1012 -0.96945,4.4274 -0.33156,2.3262 -0.635762,7.053782 -0.76109,10.591 -0.1734328,4.894931 -0.114978,9.797678 0.01331,14.694 0.104743,3.997594 0.302389,7.99446 0.617387,11.981 0.271764,3.439373 0.583063,10.600346 1.097323,10.291946 z"
         style="stroke-width:0.4;stroke-dasharray:none;paint-order:fill markers stroke"
         id="path71043"
         sodipodi:nodetypes="cacaasssaaacc" />
      <path
         d="m 16.575334,26.888 c 2.7301,-0.14428 4.401566,-0.28855 5.526366,-2.5921 1.1248,-2.3035 1.47352,-6.7659 1.0073,-10.037 -0.46622,-3.2711 -0.91809,-5.3492 -1.406,-4.8472 -0.48793,0.50204 -1.311763,3.5844 -1.046003,6.6153 0.26572,3.0309 0.791733,6.0098 0.154723,7.8113 -0.63706,1.8015 -1.907366,2.4255 -4.236366,3.0496 z"
         style="stroke-width:0.4;stroke-dasharray:none;paint-order:fill markers stroke"
         id="path71045"
         sodipodi:nodetypes="ccsccccc" />
      <path
         d="m 7.9581566,31.137067 c -2.73,-0.002 -3.8723899,-0.533067 -5.0853899,-1.795267 -1.213,-1.2622 -1.96703337,-3.7847 -1.4126234,-6.4383 0.55441,-2.6536 1.55869,-5.429644 2.05269,-5.262644 0.49395,0.16702 0.4774497,3.276944 0.12355,5.690444 -0.3539,2.4136 -0.1865666,4.1223 0.5325767,5.2177 0.71914,1.0954 1.4601999,2.106267 3.7891999,2.588067 v 1e-5 z"
         style="stroke-width:0.4;stroke-dasharray:none;paint-order:fill markers stroke"
         id="path71047"
         sodipodi:nodetypes="cssccsccc" />
    </g>
  </g>
</svg>
