<?xml version="1.0" encoding="UTF-8" standalone="no"?>
<!-- Created with Inkscape (http://www.inkscape.org/) -->

<svg
   width="150mm"
   height="150mm"
   viewBox="0 0 150 150"
   version="1.1"
   id="svg5"
   inkscape:version="1.2 (dc2aedaf03, 2022-05-15)"
   sodipodi:docname="ground-d10.svg"
   xmlns:inkscape="http://www.inkscape.org/namespaces/inkscape"
   xmlns:sodipodi="http://sodipodi.sourceforge.net/DTD/sodipodi-0.dtd"
   xmlns="http://www.w3.org/2000/svg"
   xmlns:svg="http://www.w3.org/2000/svg">
  <sodipodi:namedview
     id="namedview7"
     pagecolor="#ffffff"
     bordercolor="#000000"
     borderopacity="0.25"
     inkscape:showpageshadow="2"
     inkscape:pageopacity="0.0"
     inkscape:pagecheckerboard="0"
     inkscape:deskcolor="#d1d1d1"
     inkscape:document-units="mm"
     showgrid="false"
     inkscape:zoom="0.75455247"
     inkscape:cx="160.35995"
     inkscape:cy="243.85315"
     inkscape:window-width="1345"
     inkscape:window-height="981"
     inkscape:window-x="320"
     inkscape:window-y="9"
     inkscape:window-maximized="0"
     inkscape:current-layer="layer1" />
  <defs
     id="defs2">
    <clipPath
       clipPathUnits="userSpaceOnUse"
       id="clipPath1877">
      <path
         id="path1879"
         style="fill:#ff0000;fill-opacity:1;fill-rule:nonzero;stroke:none;stroke-width:0.264583"
         d="m -5.137154,95.025723 c 0.4436899,1.518457 0.7148134,3.264371 0.7539591,5.243607 0.033858,1.71192 -0.042876,3.42082 -0.129708,5.12992 -0.074394,1.37525 -0.1386221,2.75097 -0.168465,4.12791 -0.026501,1.39742 -0.035642,2.7954 -0.042892,4.19303 -0.00647,1.46628 -0.00677,2.93241 -0.00775,4.3987 -9.26e-4,1.56364 -0.00138,3.12757 -0.00156,4.69118 -1.509e-4,1.53083 2.3e-5,3.06165 0,4.59249 -1.83e-5,1.33459 3.9e-6,2.66929 0,4.00389 -2.7e-6,1.19517 5e-7,2.39014 0,3.58531 v 3.96617 3.34346 4.65708 3.50676 2.98639 0.2961 c 0.8380534,0.005 1.6758959,0.008 2.5140584,0.01 1.2163288,-0.0342 2.42658932,0.0376 3.6344035,0.17778 1.4746316,0.14714 2.9006939,0.55676 4.3227336,0.95187 0.024307,0.007 0.048272,0.0165 0.072347,0.0248 -0.00404,-0.008 -0.00402,-0.0154 0.0062,-0.0238 0.1084387,-0.0895 0.2799799,0.0299 0.4201292,0.0413 0.8664596,0.0704 1.7228958,0.12921 2.5895062,0.21911 1.762741,0.22761 3.521503,0.48804 5.289083,0.67593 1.803995,0.15957 3.610399,0.2924 5.415173,0.44545 1.563515,0.11814 3.115343,0.34953 4.680851,0.44183 2.452747,0.12174 4.910122,0.13741 7.365443,0.1602 2.95662,0.0242 5.913556,0.0302 8.870259,0.0362 3.02587,-0.0566 6.040488,0.0321 9.058362,0.24856 3.454922,0.25855 6.912917,0.46236 10.374562,0.60255 3.007722,0.10905 6.017482,0.14317 9.026837,0.16897 3.323029,-0.021 6.643912,0.081 9.96425,0.19999 2.338361,0.0389 4.660205,0.124 6.975804,0.46664 2.154488,0.38725 4.171227,1.26577 6.281269,1.81385 0.327776,0.0851 2.438836,0.50057 2.597774,0.53227 3.580538,0.49422 7.176485,0.85925 10.780735,1.12292 2.50435,0.13603 5.01086,0.21526 7.51789,0.27854 0.10121,-3.89545 3.68802,-7.99384 11.27838,-9.19738 1.55032,-0.24579 3.12362,-0.2864 4.68964,-0.33951 1.22404,-0.0389 2.44863,-0.0632 3.67316,-0.0796 0.73591,-0.0106 1.47215,-0.0135 2.20813,-0.0155 0.68732,-0.001 1.37456,-0.002 2.06189,-0.002 0.58278,-2.6e-4 1.16545,5e-5 1.74821,0 0.55884,-4e-5 1.11755,-5.3e-4 1.67639,-5.3e-4 h 1.94407 2.35076 c 0.17194,-0.009 0.34346,-0.0131 0.51469,-0.0134 1.19867,-0.002 2.38094,0.19864 3.55948,0.41444 0.97111,0.21704 1.94997,0.37437 2.93108,0.53589 0.34324,0.0543 0.68404,0.12027 1.02423,0.1881 0.0591,-1.07227 0.003,-2.14921 0.0289,-3.22306 0.003,-1.27586 0.006,-2.55144 0.0279,-3.82716 0.025,-1.04308 0.0585,-2.08718 0.18036,-3.12436 0.1053,-0.94129 0.22238,-1.88176 0.36741,-2.81791 0.0161,-0.16327 0.0323,-0.32617 0.0491,-0.48938 0.0198,-0.19225 0.0612,-0.76932 0.0682,-0.57619 0.004,0.10073 -0.002,0.4035 0.003,0.30282 0.0127,-0.2525 -0.0136,-0.50614 0,-0.75861 v -2.44636 -2.66754 -2.49132 -3.33416 -2.68924 -3.10679 -3.35793 -2.87321 c 0,-1.07676 1e-5,-2.15354 0,-3.2303 -2e-5,-0.84765 1.3e-4,-1.69533 0,-2.54299 -8e-5,-0.60428 -2.6e-4,-1.20853 -10e-4,-1.81281 -0.001,-0.66582 -0.002,-1.3315 -0.007,-1.9973 -0.004,-0.45344 -0.006,-0.90701 -0.0243,-1.36012 -0.002,-0.0529 -0.0266,-0.10915 -0.008,-0.15865 0.007,-0.0173 -0.002,0.0632 0.0191,0.0522 -5.2e-4,-0.002 -0.004,-0.0135 -0.004,-0.014 -0.18537,-0.58021 -0.37699,-1.16142 -0.48007,-1.76371 h 0.002 c -0.58347,-3.40909 -0.37001,-6.259603 0.3669,-8.499224 z m 173.189944,0 c 0.68416,1.371074 1.24936,2.991041 1.6459,4.872056 0.16418,0.500981 0.29475,0.999451 0.42633,1.512571 0.22242,0.95509 0.33142,1.92989 0.40101,2.90628 0.0456,0.76767 0.0509,1.53704 0.0579,2.3058 0.005,0.70734 0.006,1.41448 0.007,2.12184 7.9e-4,0.61037 7.9e-4,1.22104 0.001,1.83141 1.4e-4,0.84889 -1e-5,1.69772 0,2.54661 1e-5,1.07685 -1e-5,2.15344 0,3.2303 v 2.87321 3.35793 3.10679 2.68924 3.33416 2.49132 2.66754 2.44636 c 0.0391,1.07376 -0.0986,2.13955 -0.20309,3.20549 -0.12809,1.01264 -0.27771,2.0219 -0.39015,3.03651 -0.063,0.53962 -0.0676,1.0832 -0.0801,1.62574 -0.0175,1.15525 -0.0212,2.31057 -0.0243,3.46594 0.007,1.64169 0.0155,3.28093 -0.10284,4.91908 -0.0427,0.75565 -0.13515,1.50597 -0.24029,2.25464 0.97712,-0.17653 1.954,-0.35518 2.93264,-0.52296 1.21345,-0.19593 0.63536,-0.10487 1.73529,-0.27441 16.81055,-2.59107 19.42481,14.40106 2.61276,16.98243 -0.92468,0.14202 -0.44219,0.0661 -1.44694,0.22738 -2.54609,0.43569 -5.08434,0.91612 -7.63209,1.34255 -2.63754,8.74997 -11.30673,9.32604 -14.88333,2.68046 -2.58234,0.40568 -5.16474,0.81095 -7.77265,1.02112 -3.451,0.27562 -6.9094,0.4919 -10.37353,0.4222 -2.81414,-0.002 -5.62824,-0.003 -8.44238,-0.0124 -3.18807,-0.0124 -6.37603,-0.028 -9.56376,-0.0786 -4.15864,-0.0753 -8.31801,-0.17709 -12.47107,-0.41445 -4.320329,-0.31861 -8.635967,-0.74772 -12.91756,-1.41593 -2.728082,-0.55446 -5.516134,-1.13767 -8.093564,-2.20658 -0.268476,-0.0447 -0.53053,-0.13428 -0.802019,-0.15348 -1.388567,-0.0983 -2.790071,-0.0229 -4.179072,-0.12506 -3.164409,-0.11354 -6.329035,-0.21245 -9.49606,-0.18965 -3.192555,-0.0274 -6.385391,-0.0645 -9.57616,-0.1819 -3.642778,-0.14821 -7.281942,-0.36147 -10.917682,-0.63356 -0.0279,-0.002 -2.531372,-0.18833 -2.819982,-0.19843 -1.675093,-0.0585 -3.355721,0.0431 -5.031216,-0.005 -2.999346,-0.006 -5.999163,-0.012 -8.998419,-0.0367 -2.775119,-0.0261 -5.552345,-0.0461 -8.324039,-0.19637 -1.675786,-0.11525 -3.341517,-0.31208 -5.013647,-0.46664 -1.938662,-0.16451 -3.87964,-0.30318 -5.816699,-0.48421 -1.784066,-0.19637 -3.5628334,-0.43605 -5.3407596,-0.68161 -1.9276886,-0.25589 -3.9113285,-0.17305 -5.7862102,-0.78341 -0.70596811,-0.19645 -1.29210575,-0.40192 -1.70118816,-0.43822 -0.13585235,-0.0157 -0.27229379,-0.0285 -0.40772704,-0.0475 -0.0102185,-0.002 0.0203462,-0.004 0.0304891,-0.006 l 0.17363281,-0.009 c -0.49165541,-0.0142 -0.98464751,0.0108 -1.47639561,-0.001 -1.0021174,-0.002 -2.0039292,-0.004 -3.0060182,-0.0119 -1.4526045,-0.013 -2.9051996,-0.0347 -4.3573567,-0.0739 -1.4141494,-0.0406 -2.8287894,-0.0931 -4.2405684,-0.18603 v 25.71316 H 206.4551 V 95.025723 Z" />
    </clipPath>
  </defs>
  <g
     inkscape:label="Layer 1"
     inkscape:groupmode="layer"
     id="layer1">
    <rect
       style="fill:none;fill-rule:evenodd;stroke-width:0.264583"
       id="rect2485"
       width="150"
       height="47.61039"
       x="0"
       y="102.38961" />
    <path
       style="fill:#dbd853;fill-opacity:0.65098;fill-rule:evenodd;stroke:none;stroke-width:0.133356;stroke-dasharray:none;stroke-opacity:0.516729;paint-order:fill markers stroke"
       d="m 70.97792,150.26735 c -13.820903,-1.00212 -26.273757,-5.06251 -36.931735,-12.04203 -4.847366,-3.17436 -7.541709,-5.34749 -11.793387,-9.512 C 15.851376,122.44314 11.600065,116.59517 7.4774224,108.3888 l -2.4774223,-4.93146 35.0210919,-0.0898 c 19.261602,-0.0494 50.761598,-0.0494 70.000038,0 l 34.97887,0.0898 -2.25958,4.57922 c -11.13296,22.5614 -32.43287,38.05333 -57.095827,41.52707 -3.89636,0.54881 -11.663467,0.92147 -14.666673,0.70372 z"
       id="path11461" />
  </g>
</svg>
