<?xml version="1.0" encoding="UTF-8" standalone="no"?>
<!-- Created with Inkscape (http://www.inkscape.org/) -->

<svg
   width="26mm"
   height="17mm"
   viewBox="0 0 26 17"
   version="1.1"
   id="svg5"
   inkscape:version="1.2 (dc2aedaf03, 2022-05-15)"
   sodipodi:docname="sombrero.svg"
   xmlns:inkscape="http://www.inkscape.org/namespaces/inkscape"
   xmlns:sodipodi="http://sodipodi.sourceforge.net/DTD/sodipodi-0.dtd"
   xmlns="http://www.w3.org/2000/svg"
   xmlns:svg="http://www.w3.org/2000/svg">
  <sodipodi:namedview
     id="namedview7"
     pagecolor="#ffffff"
     bordercolor="#000000"
     borderopacity="0.25"
     inkscape:showpageshadow="2"
     inkscape:pageopacity="0.0"
     inkscape:pagecheckerboard="0"
     inkscape:deskcolor="#d1d1d1"
     inkscape:document-units="mm"
     showgrid="false"
     inkscape:zoom="6.0364198"
     inkscape:cx="55.496472"
     inkscape:cy="55.827794"
     inkscape:window-width="1345"
     inkscape:window-height="981"
     inkscape:window-x="320"
     inkscape:window-y="9"
     inkscape:window-maximized="0"
     inkscape:current-layer="layer1" />
  <defs
     id="defs2">
    <linearGradient
       id="linearGradient96156"
       inkscape:swatch="solid">
      <stop
         style="stop-color:#e1c561;stop-opacity:1;"
         offset="0"
         id="stop96154" />
    </linearGradient>
    <inkscape:path-effect
       effect="powerstroke"
       id="path-effect94130"
       is_visible="true"
       lpeversion="1"
       offset_points="0.88887675,0.65746753"
       not_jump="true"
       sort_points="true"
       interpolator_type="CentripetalCatmullRom"
       interpolator_beta="0.75"
       start_linecap_type="round"
       linejoin_type="spiro"
       miter_limit="4"
       scale_width="1"
       end_linecap_type="round" />
    <inkscape:path-effect
       effect="simplify"
       id="path-effect94128"
       is_visible="true"
       lpeversion="1"
       steps="1"
       threshold="0.0047745358"
       smooth_angles="0"
       helper_size="0"
       simplify_individual_paths="false"
       simplify_just_coalesce="false"
       step="1" />
    <inkscape:path-effect
       effect="bspline"
       id="path-effect92633"
       is_visible="true"
       lpeversion="1"
       weight="33.333333"
       steps="2"
       helper_size="0"
       apply_no_weight="true"
       apply_with_weight="true"
       only_selected="false" />
    <linearGradient
       id="linearGradient92580">
      <stop
         style="stop-color:#928724;stop-opacity:0;"
         offset="0.18260869"
         id="stop92588" />
      <stop
         style="stop-color:#ffffff;stop-opacity:0;"
         offset="0.52753621"
         id="stop92590" />
      <stop
         style="stop-color:#d3cd2c;stop-opacity:1;"
         offset="1"
         id="stop92592" />
    </linearGradient>
    <linearGradient
       id="linearGradient92580-1">
      <stop
         style="stop-color:#928724;stop-opacity:0;"
         offset="0.20579708"
         id="stop92586" />
      <stop
         style="stop-color:#ffffff;stop-opacity:0;"
         offset="0.20579708"
         id="stop92578" />
      <stop
         style="stop-color:#bf9f27;stop-opacity:1;"
         offset="0.37101448"
         id="stop92576" />
    </linearGradient>
    <inkscape:path-effect
       effect="bspline"
       id="path-effect92574"
       is_visible="true"
       lpeversion="1"
       weight="33.333333"
       steps="2"
       helper_size="0"
       apply_no_weight="true"
       apply_with_weight="true"
       only_selected="false" />
    <inkscape:path-effect
       effect="bspline"
       id="path-effect92503"
       is_visible="true"
       lpeversion="1"
       weight="33.333333"
       steps="2"
       helper_size="0"
       apply_no_weight="true"
       apply_with_weight="true"
       only_selected="false" />
    <inkscape:path-effect
       effect="bspline"
       id="path-effect92495"
       is_visible="true"
       lpeversion="1"
       weight="33.333333"
       steps="2"
       helper_size="0"
       apply_no_weight="true"
       apply_with_weight="true"
       only_selected="false" />
    <inkscape:path-effect
       effect="bspline"
       id="path-effect92437"
       is_visible="true"
       lpeversion="1"
       weight="33.333333"
       steps="2"
       helper_size="0"
       apply_no_weight="true"
       apply_with_weight="true"
       only_selected="false" />
    <inkscape:path-effect
       effect="bspline"
       id="path-effect24353"
       is_visible="true"
       lpeversion="1"
       weight="33.333333"
       steps="2"
       helper_size="0"
       apply_no_weight="true"
       apply_with_weight="true"
       only_selected="false" />
    <inkscape:path-effect
       effect="bspline"
       id="path-effect23597"
       is_visible="true"
       lpeversion="1"
       weight="33.333333"
       steps="2"
       helper_size="0"
       apply_no_weight="true"
       apply_with_weight="true"
       only_selected="false" />
    <inkscape:path-effect
       effect="bspline"
       id="path-effect23593"
       is_visible="true"
       lpeversion="1"
       weight="33.333333"
       steps="2"
       helper_size="0"
       apply_no_weight="true"
       apply_with_weight="true"
       only_selected="false" />
    <inkscape:path-effect
       effect="bspline"
       id="path-effect23235"
       is_visible="true"
       lpeversion="1"
       weight="33.333333"
       steps="2"
       helper_size="0"
       apply_no_weight="true"
       apply_with_weight="true"
       only_selected="false" />
    <inkscape:path-effect
       effect="bspline"
       id="path-effect22143"
       is_visible="true"
       lpeversion="1"
       weight="33.333333"
       steps="2"
       helper_size="0"
       apply_no_weight="true"
       apply_with_weight="true"
       only_selected="false" />
    <inkscape:path-effect
       effect="bspline"
       id="path-effect21357"
       is_visible="true"
       lpeversion="1"
       weight="33.333333"
       steps="2"
       helper_size="0"
       apply_no_weight="true"
       apply_with_weight="true"
       only_selected="false" />
    <inkscape:path-effect
       effect="bspline"
       id="path-effect21353"
       is_visible="true"
       lpeversion="1"
       weight="33.333333"
       steps="2"
       helper_size="0"
       apply_no_weight="true"
       apply_with_weight="true"
       only_selected="false" />
    <inkscape:path-effect
       effect="bspline"
       id="path-effect21294"
       is_visible="true"
       lpeversion="1"
       weight="33.333333"
       steps="2"
       helper_size="0"
       apply_no_weight="true"
       apply_with_weight="true"
       only_selected="false" />
    <inkscape:path-effect
       effect="bspline"
       id="path-effect20936"
       is_visible="true"
       lpeversion="1"
       weight="33.333333"
       steps="2"
       helper_size="0"
       apply_no_weight="true"
       apply_with_weight="true"
       only_selected="false" />
    <inkscape:path-effect
       effect="bspline"
       id="path-effect20852"
       is_visible="true"
       lpeversion="1"
       weight="33.333333"
       steps="2"
       helper_size="0"
       apply_no_weight="true"
       apply_with_weight="true"
       only_selected="false" />
    <inkscape:path-effect
       effect="bspline"
       id="path-effect20647"
       is_visible="true"
       lpeversion="1"
       weight="33.333333"
       steps="2"
       helper_size="0"
       apply_no_weight="true"
       apply_with_weight="true"
       only_selected="false" />
    <inkscape:path-effect
       effect="bspline"
       id="path-effect20201"
       is_visible="true"
       lpeversion="1"
       weight="33.333333"
       steps="2"
       helper_size="0"
       apply_no_weight="true"
       apply_with_weight="true"
       only_selected="false" />
    <inkscape:path-effect
       effect="bspline"
       id="path-effect20143"
       is_visible="true"
       lpeversion="1"
       weight="33.333333"
       steps="2"
       helper_size="0"
       apply_no_weight="true"
       apply_with_weight="true"
       only_selected="false" />
    <inkscape:path-effect
       effect="powerstroke"
       id="path-effect20079"
       is_visible="true"
       lpeversion="1"
       offset_points="0.54654691,1.859599"
       not_jump="true"
       sort_points="true"
       interpolator_type="CentripetalCatmullRom"
       interpolator_beta="0.75"
       start_linecap_type="round"
       linejoin_type="spiro"
       miter_limit="4"
       scale_width="1"
       end_linecap_type="round" />
    <inkscape:path-effect
       effect="simplify"
       id="path-effect20077"
       is_visible="true"
       lpeversion="1"
       steps="1"
       threshold="0.0047745358"
       smooth_angles="0"
       helper_size="0"
       simplify_individual_paths="false"
       simplify_just_coalesce="false"
       step="1" />
    <inkscape:path-effect
       effect="powerstroke"
       id="path-effect19257"
       is_visible="true"
       lpeversion="1"
       offset_points="0.78832961,1.859599"
       not_jump="true"
       sort_points="true"
       interpolator_type="CentripetalCatmullRom"
       interpolator_beta="0.75"
       start_linecap_type="round"
       linejoin_type="spiro"
       miter_limit="4"
       scale_width="1"
       end_linecap_type="round" />
    <inkscape:path-effect
       effect="simplify"
       id="path-effect19255"
       is_visible="true"
       lpeversion="1"
       steps="1"
       threshold="0.0047745358"
       smooth_angles="0"
       helper_size="0"
       simplify_individual_paths="false"
       simplify_just_coalesce="false"
       step="1" />
    <inkscape:path-effect
       effect="bspline"
       id="path-effect20852-7"
       is_visible="true"
       lpeversion="1"
       weight="33.333333"
       steps="2"
       helper_size="0"
       apply_no_weight="true"
       apply_with_weight="true"
       only_selected="false" />
    <inkscape:path-effect
       effect="bspline"
       id="path-effect21294-6"
       is_visible="true"
       lpeversion="1"
       weight="33.333333"
       steps="2"
       helper_size="0"
       apply_no_weight="true"
       apply_with_weight="true"
       only_selected="false" />
    <inkscape:path-effect
       effect="bspline"
       id="path-effect22143-7"
       is_visible="true"
       lpeversion="1"
       weight="33.333333"
       steps="2"
       helper_size="0"
       apply_no_weight="true"
       apply_with_weight="true"
       only_selected="false" />
    <inkscape:path-effect
       effect="bspline"
       id="path-effect23597-2"
       is_visible="true"
       lpeversion="1"
       weight="33.333333"
       steps="2"
       helper_size="0"
       apply_no_weight="true"
       apply_with_weight="true"
       only_selected="false" />
    <inkscape:path-effect
       effect="bspline"
       id="path-effect24353-2"
       is_visible="true"
       lpeversion="1"
       weight="33.333333"
       steps="2"
       helper_size="0"
       apply_no_weight="true"
       apply_with_weight="true"
       only_selected="false" />
  </defs>
  <g
     inkscape:label="Layer 1"
     inkscape:groupmode="layer"
     id="layer1">
    <path
       style="fill:#dac057;fill-opacity:1;fill-rule:nonzero;stroke:none;stroke-width:0.150001;stroke-opacity:0.899628;paint-order:fill markers stroke"
       d="m 0.4,10.592045 c -8.502e-5,-1.4257863 6.3380611,-2.8514867 12.676355,-2.8513874 6.338294,9.94e-5 12.676313,1.4257711 12.676165,2.8514014 -1.48e-4,1.42563 -6.338168,2.851304 -12.676292,2.851374 C 6.7381036,13.443504 0.40008503,12.017831 0.4,10.592045 Z"
       id="path92501"
       inkscape:path-effect="#path-effect92503"
       inkscape:original-d="M -5.9385241,10.592025 C 0.4000191,9.1667216 6.7381651,7.7410205 13.075913,6.3149241 19.414583,7.7410495 25.752602,9.1667216 32.090352,10.592025 25.752476,12.018153 19.414456,13.443825 13.075913,14.86913 6.7380375,13.443798 0.4000191,12.018124 -5.9385241,10.592025 Z" />
    <path
       style="fill:#e1c561;fill-opacity:1;fill-rule:nonzero;stroke:none;stroke-width:0.0996398;stroke-opacity:0.899628;paint-order:fill markers stroke"
       d="M 6.5027753,13.017558 C 8.6938832,6.7187726 10.885045,0.41983217 13.076289,0.40004678 c 2.191244,-0.0197854 4.382294,6.23910212 6.573456,12.49830722 -2.216592,0.624669 -4.433008,1.249288 -6.624102,1.269223 -2.191094,0.01993 -4.7752906,-0.678022 -6.5228677,-1.150019"
       id="path92629"
       inkscape:path-effect="#path-effect92633"
       inkscape:original-d="M 6.5027753,13.017558 C 8.6942009,6.7188831 10.885362,0.41994245 13.07626,-5.8792613 c 2.191426,6.25946908 6.573485,18.7776153 6.573485,18.7776153 0,0 -4.43292,1.2496 -6.649777,1.874007 -2.165467,-0.584673 -4.7496638,-1.282628 -6.4971927,-1.754803"
       sodipodi:nodetypes="csccc" />
    <path
       style="fill:#c8a92b;fill-opacity:1;fill-rule:evenodd;stroke:none;stroke-width:0.1;stroke-opacity:0.899628;paint-order:fill markers stroke"
       d="m 0.4,10.592044 c 0.8008572,2.084539 1.601821,4.169356 5.3497287,5.211486 3.7479076,1.042131 10.4423033,1.042131 14.2672133,-9.8e-5 3.82491,-1.042228 4.78026,-3.126838 5.735576,-5.211371 -1.042366,0.585547 -2.084643,1.171044 -4.235949,1.620991 -2.151306,0.449946 -6.508231,0.869978 -8.649637,0.862141 C 10.725526,13.067356 6.4589345,12.615659 4.3849061,12.165799 2.3108777,11.715939 1.3552829,11.1539 0.4,10.592044 Z"
       id="path92572"
       inkscape:path-effect="#path-effect92574"
       inkscape:original-d="m 0.4,10.592044 c 0,0 1.6019629,4.169301 2.4025716,6.253617 6.6950647,2.65e-4 13.3894604,2.65e-4 20.0839994,0 0.9556,-2.084311 2.865947,-6.2536 2.865947,-6.2536 0,0 -2.084467,1.171358 -3.127097,1.75664 -3.26013,0.314585 -7.617055,0.734616 -9.781184,0.94296 C 10.725501,13.06759 6.4589097,12.615893 3.2658486,12.277612 2.3108303,11.71602 0.4,10.592044 0.4,10.592044 Z"
       sodipodi:nodetypes="ccccsssc" />
    <path
       style="fill:#e17861;fill-opacity:1;fill-rule:nonzero;stroke:none;stroke-width:0.098058;stroke-opacity:0.899628;paint-order:fill markers stroke"
       d="m 10.704419,13.370661 c 0,0 1.448503,0.07552 2.173909,0.075 0.702704,-5.03e-4 2.105727,-0.075 2.105727,-0.075 l -2.139771,2.506 z"
       id="path93819-3"
       sodipodi:nodetypes="csccc" />
    <path
       style="fill:#e17861;fill-opacity:1;fill-rule:nonzero;stroke:none;stroke-width:0.1;stroke-opacity:0.899628;paint-order:fill markers stroke"
       d="m 14.984055,13.370661 2.206063,-0.125 2.090497,-0.239036 -1.780096,2.646878 z"
       id="path93819-35"
       sodipodi:nodetypes="csccc" />
    <path
       style="fill:#e17861;fill-opacity:1;fill-rule:nonzero;stroke:none;stroke-width:0.1;stroke-opacity:0.899628;paint-order:fill markers stroke"
       d="m 10.723797,13.364697 -2.2060621,-0.200036 -2.0904967,-0.264 0.890048,1.423439 0.890048,1.323439 1.2582311,-1.141878 z"
       id="path93819-35-8"
       sodipodi:nodetypes="csccccc" />
    <path
       style="fill:#e17861;fill-opacity:1;fill-rule:nonzero;stroke:none;stroke-width:0.1;stroke-opacity:0.899628;paint-order:fill markers stroke"
       d="m 3.1472382,12.245661 c 0,0 0.5600236,0.14992 1.2376679,0.32 0.7059858,0.177194 2.1134338,0.366 2.1134338,0.366 l -2.6854681,1.61 z"
       id="path93819-7"
       sodipodi:nodetypes="csccc" />
    <path
       style="fill:#e17861;fill-opacity:1;fill-rule:nonzero;stroke:none;stroke-width:0.1;stroke-opacity:0.899628;paint-order:fill markers stroke"
       d="m 22.541237,12.371661 c 0,0 -0.553524,0.134314 -1.237668,0.276 -0.69716,0.144382 -2.113434,0.366 -2.113434,0.366 l 2.685468,1.592 z"
       id="path93819-7-6"
       sodipodi:nodetypes="csccc" />
    <path
       style="fill:#e17861;fill-opacity:1;fill-rule:nonzero;stroke:none;stroke-width:0.103942;stroke-opacity:0.899628;paint-order:fill markers stroke"
       d="m 1.3002382,11.545661 c 0,0 0.621011,0.259687 0.909,0.385 0.3565151,0.155131 0.945,0.325 0.945,0.325 l -1.44,0.688 z"
       id="path93819-7-4"
       sodipodi:nodetypes="csccc" />
    <path
       style="fill:#e17861;fill-opacity:1;fill-rule:nonzero;stroke:none;stroke-width:0.103942;stroke-opacity:0.899628;paint-order:fill markers stroke"
       d="m 24.450042,11.745661 c 0,0 -0.608601,0.248339 -0.909,0.34 -0.356478,0.108772 -1.020143,0.28 -1.020143,0.28 l 1.524143,0.764 z"
       id="path93819-7-4-1"
       sodipodi:nodetypes="csccc" />
    <path
       style="fill:#6be161;fill-opacity:1;fill-rule:nonzero;stroke:none;stroke-width:0.136831;stroke-linecap:butt;stroke-linejoin:round;stroke-dasharray:none;stroke-opacity:0.899628;paint-order:fill markers stroke"
       d="m 9.1022526,15.741149 1.5611294,-1.446176 1.313855,1.600688 -1.425182,-0.04 z"
       id="path94402"
       sodipodi:nodetypes="ccccc" />
    <path
       style="fill:#6be161;fill-opacity:1;fill-rule:nonzero;stroke:none;stroke-width:0.136831;stroke-linecap:butt;stroke-linejoin:round;stroke-dasharray:none;stroke-opacity:0.899628;paint-order:fill markers stroke"
       d="m 16.621222,15.740837 -1.561131,-1.446176 -1.313854,1.601 1.430013,-0.04 z"
       id="path94402-4"
       sodipodi:nodetypes="ccccc" />
    <path
       style="fill:#6be161;fill-opacity:1;fill-rule:nonzero;stroke:none;stroke-width:0.136831;stroke-linecap:butt;stroke-linejoin:round;stroke-dasharray:none;stroke-opacity:0.899628;paint-order:fill markers stroke"
       d="m 21.265237,14.845661 -1.779,-0.970008 -1.014,1.630008 c 0,0 0.81308,-0.10821 1.21962,-0.192 0.52446,-0.108099 1.57338,-0.468 1.57338,-0.468 z"
       id="path94402-4-6"
       sodipodi:nodetypes="cccsc" />
    <path
       style="fill:#6be161;fill-opacity:1;fill-rule:nonzero;stroke:none;stroke-width:0.136831;stroke-linecap:butt;stroke-linejoin:round;stroke-dasharray:none;stroke-opacity:0.899628;paint-order:fill markers stroke"
       d="m 4.4882382,14.833669 1.779,-1.014008 1.014,1.701 c 0,0 -0.81308,-0.15121 -1.21962,-0.235 -0.52446,-0.108099 -1.57338,-0.451992 -1.57338,-0.451992 z"
       id="path94402-4-6-5"
       sodipodi:nodetypes="cccsc" />
    <path
       style="fill:#6be161;fill-opacity:1;fill-rule:nonzero;stroke:none;stroke-width:0.0834637;stroke-linecap:butt;stroke-linejoin:round;stroke-dasharray:none;stroke-opacity:0.899628;paint-order:fill markers stroke"
       d="m 2.0542382,13.312661 0.882,-0.514 0.3773357,1.489772 c 0,0 -0.2880738,-0.188982 -0.4393357,-0.272772 -0.1951365,-0.108099 -0.82,-0.703 -0.82,-0.703 z"
       id="path94402-4-6-5-4"
       sodipodi:nodetypes="cccsc" />
    <path
       style="fill:#6be161;fill-opacity:1;fill-rule:nonzero;stroke:none;stroke-width:0.0834637;stroke-linecap:butt;stroke-linejoin:round;stroke-dasharray:none;stroke-opacity:0.899628;paint-order:fill markers stroke"
       d="m 23.614237,13.555661 -0.862,-0.703 -0.377336,1.513 c 0,0 0.302524,-0.16621 0.453786,-0.25 0.195136,-0.108099 0.78555,-0.56 0.78555,-0.56 z"
       id="path94402-4-6-5-4-6"
       sodipodi:nodetypes="cccsc" />
    <path
       style="fill:#31c82b;fill-opacity:0.884758;fill-rule:nonzero;stroke:none;stroke-width:0.1;stroke-linecap:butt;stroke-linejoin:round;stroke-dasharray:none;stroke-opacity:0.899628;paint-order:fill markers stroke"
       d="m 7.3812382,10.592044 c 0,0 3.6299658,0.620754 5.4629988,0.629617 2.001013,0.0097 5.97,-0.629617 5.97,-0.629617 l 0.2,0.543617 c 0,0 -4.101841,0.665042 -6.17,0.654 -1.906603,-0.01018 -5.6812639,-0.663615 -5.6812639,-0.663615 z"
       id="path94695"
       sodipodi:nodetypes="caccacc" />
    <path
       style="fill:#7a7a7a;fill-opacity:0.884758;fill-rule:nonzero;stroke:none;stroke-width:0.1;stroke-linecap:butt;stroke-linejoin:round;stroke-dasharray:none;stroke-opacity:0.899628;paint-order:fill markers stroke"
       d="m 7.1629729,11.126046 c 0,0 3.7746611,0.653435 5.6812641,0.663615 2.068159,0.01104 6.17,-0.654 6.17,-0.654 l 0.076,0.21 c 0,0 -4.120893,0.744216 -6.246,0.7 -1.962122,-0.04082 -5.7299988,-0.695 -5.7299988,-0.695 z"
       id="path94859"
       sodipodi:nodetypes="csccscc" />
    <path
       style="fill:#fefefe;fill-opacity:0.884758;fill-rule:nonzero;stroke:none;stroke-width:0.100832;stroke-linecap:butt;stroke-linejoin:round;stroke-dasharray:none;stroke-opacity:0.899628;paint-order:fill markers stroke"
       d="m 7.0942382,11.345661 c 0,0 3.8072478,0.69468 5.7456918,0.70486 2.102699,0.01104 6.273307,-0.70486 6.273307,-0.70486 l 0.07701,0.26086 c 0,0 -4.189714,0.744216 -6.350312,0.7 -1.994895,-0.04082 -5.8356968,-0.695 -5.8356968,-0.695 z"
       id="path94859-1"
       sodipodi:nodetypes="csccscc" />
    <path
       style="fill:#e17861;fill-opacity:1;fill-rule:nonzero;stroke:none;stroke-width:0.110593;stroke-linecap:butt;stroke-linejoin:round;stroke-dasharray:none;stroke-opacity:0.899628;paint-order:fill markers stroke"
       d="m 7.4685735,10.261091 c 0,0 3.7479305,0.680741 5.6012705,0.65457 1.827815,-0.02581 5.65908,-0.630435 5.65908,-0.630435 l 0.08531,0.306818 c 0,0 -3.832336,0.664979 -5.74451,0.673617 -1.903183,0.0086 -5.6884888,-0.673617 -5.6884888,-0.673617 z"
       id="path95369"
       sodipodi:nodetypes="csccscc" />
    <path
       style="fill:#c8a92b;fill-opacity:1;fill-rule:nonzero;stroke:none;stroke-width:0.0165661;stroke-linecap:butt;stroke-linejoin:round;stroke-dasharray:none;stroke-opacity:0.899628;paint-order:fill markers stroke"
       d="m 12.001705,10.858568 c -0.503344,-0.03776 -1.900181,-0.204879 -2.6737014,-0.319885 -1.5160184,-0.225398 -1.7970773,-0.27784 -1.7970773,-0.33531 0,-0.05926 0.6130367,-1.8015271 0.7459088,-2.1198868 0.045277,-0.108482 0.2892868,-0.7216197 0.5422448,-1.3625281 1.7131421,-4.3405166 3.0396061,-6.28882065 4.2784041,-6.28409665 1.268854,0.0048 2.68063,2.15256175 4.48628,6.82494435 0.184028,0.4762007 0.35242,0.9002674 0.374204,0.9423694 0.05499,0.106276 0.738834,2.0459948 0.726848,2.0616918 -0.01595,0.02089 -2.04232,0.303345 -2.882531,0.401789 -1.690479,0.198066 -2.897194,0.258683 -3.80058,0.190912 z"
       id="path101955" />
    <path
       style="fill:#c8a92b;fill-opacity:1;stroke-width:0.0165661;stroke-linejoin:round;stroke-opacity:0.899628;paint-order:fill markers stroke"
       d="M 10.824649,16.512821 C 8.2118946,16.362559 6.0997242,15.981154 4.6301181,15.394249 2.9172413,14.710191 1.8464467,13.714768 1.0564458,12.072122 0.77431817,11.485495 0.42349688,10.667498 0.44531267,10.647166 c 0.0073,-0.0068 0.1611957,0.07642 0.3419993,0.184941 1.91559673,1.149732 4.21773213,1.662379 9.64285703,2.147303 1.193469,0.106678 3.869636,0.106159 5.150162,-10e-4 5.286728,-0.44241 7.612438,-0.941673 9.626158,-2.066459 0.24354,-0.136032 0.451654,-0.238479 0.462472,-0.227659 0.02993,0.02992 -0.663922,1.39624 -0.912919,1.797706 -1.587943,2.56029 -4.28647,3.677707 -9.700937,4.017003 -0.626962,0.03929 -3.617729,0.04906 -4.230456,0.01381 z m 1.183442,-0.600626 c 0,-0.02741 -1.305946,-1.608899 -1.336241,-1.61818 -0.0309,-0.0095 -1.6026279,1.428523 -1.5829189,1.448232 0.030482,0.03048 1.0368119,0.109637 1.7795489,0.139974 0.445982,0.0182 0.884842,0.03625 0.975244,0.04008 0.0904,0.0038 0.164367,-7.93e-4 0.164367,-0.01011 z m 3.616071,-0.07593 c 0.409821,-0.02601 0.808813,-0.06012 0.886648,-0.07578 l 0.141519,-0.02846 -0.78143,-0.719421 c -0.429788,-0.395681 -0.796101,-0.717705 -0.81403,-0.715608 -0.03125,0.0037 -1.339363,1.578923 -1.339363,1.612898 0,0.02252 1.00105,-0.01614 1.906656,-0.07363 z m -1.710196,-1.178104 c 0.575132,-0.675 1.058866,-1.227273 1.074964,-1.227273 0.0161,0 0.586331,0.505324 1.267183,1.122942 0.680851,0.617618 1.253774,1.105788 1.273162,1.084821 0.01939,-0.02097 0.413898,-0.600255 0.876691,-1.287309 0.462793,-0.687053 0.862999,-1.243108 0.889347,-1.235676 0.02635,0.0074 0.617111,0.3503 1.312808,0.761931 0.695698,0.411632 1.271417,0.74086 1.279377,0.731619 0.008,-0.0092 0.157924,-0.500041 0.333255,-1.090666 0.17533,-0.590625 0.323839,-1.079969 0.33002,-1.087431 0.0062,-0.0075 0.33119,0.146645 0.722242,0.342459 0.391052,0.195814 0.733405,0.347301 0.760783,0.336638 0.04685,-0.01825 0.447708,-1.335508 0.415458,-1.365233 -0.0083,-0.0076 -0.16296,0.04407 -0.343763,0.114876 -1.630367,0.638434 -4.952244,1.241816 -7.799379,1.416669 -2.248079,0.138063 -3.438619,0.168518 -4.56101,0.116675 C 10.575269,13.339173 8.9163305,13.193153 7.471565,13.017056 6.965315,12.955356 6.3735942,12.883367 6.15663,12.857092 5.4843024,12.775669 4.6140722,12.603595 3.7459158,12.380411 2.8521901,12.150654 2.5657588,12.055988 1.8242217,11.745284 1.5628258,11.635759 1.3333776,11.546148 1.3143369,11.546148 c -0.038091,0 0.3372394,1.315025 0.3917967,1.372717 0.018656,0.01973 0.3454408,-0.113495 0.7261911,-0.296049 0.3807499,-0.182553 0.6970892,-0.3269 0.7029762,-0.320769 0.00589,0.0061 0.1532043,0.504247 0.3273718,1.106925 0.1741676,0.602679 0.3244139,1.109454 0.3338804,1.126168 0.00947,0.01671 0.6098146,-0.325457 1.3341067,-0.760381 0.7242921,-0.434925 1.322929,-0.783908 1.3303043,-0.775519 0.00737,0.0084 0.1985965,0.311112 0.4249362,0.672719 0.2263399,0.361607 0.6143836,0.959211 0.8623191,1.328009 l 0.4507921,0.67054 0.1195242,-0.100735 c 0.065738,-0.05541 0.6189863,-0.554388 1.2294406,-1.108853 0.6104527,-0.554464 1.1249957,-1.013786 1.1434287,-1.020716 0.01843,-0.0069 0.504675,0.54018 1.080538,1.215799 0.575863,0.675618 1.058118,1.228631 1.071676,1.228914 0.01356,2.64e-4 0.495215,-0.551756 1.070347,-1.226756 z m -6.6594035,0.800682 c -0.067803,-0.176692 -0.9577869,-1.633475 -0.9979292,-1.633475 -0.059804,0 -1.7845217,0.979074 -1.7861822,1.013965 -7.144e-4,0.01527 0.043058,0.03728 0.097299,0.04891 0.054241,0.01163 0.3353086,0.094 0.6245942,0.183057 0.4426484,0.136264 1.8356352,0.452218 2.0318812,0.460867 0.038733,0.0017 0.049314,-0.02387 0.030337,-0.07332 z M 19.2699,15.402853 c 0.670857,-0.110868 1.986727,-0.48315 1.986473,-0.562007 -9.4e-5,-0.02901 -1.710678,-0.971643 -1.763225,-0.971643 -0.02796,0 -1.041876,1.60104 -1.041876,1.645187 0,0.0134 0.0641,0.01364 0.142451,5.29e-4 0.07835,-0.01312 0.382628,-0.06354 0.676177,-0.112055 z m 4.012314,-1.57117 c 0.186036,-0.136061 0.338897,-0.259756 0.339691,-0.274878 0.002,-0.03797 -0.811479,-0.695719 -0.860429,-0.695719 -0.02174,0 -0.116066,0.310653 -0.209611,0.690341 -0.09355,0.379687 -0.179968,0.728448 -0.19205,0.775024 -0.01872,0.07218 0.02279,0.06016 0.281093,-0.08135 0.166682,-0.09132 0.45527,-0.277357 0.641306,-0.413418 z M 3.1492238,13.535171 c -0.1009695,-0.40691 -0.1885403,-0.746127 -0.1946016,-0.753817 -0.02295,-0.02912 -0.8943213,0.498163 -0.892325,0.539956 0.00549,0.114878 1.1932163,1.030986 1.2556818,0.968521 0.00815,-0.0082 -0.067786,-0.347751 -0.1687552,-0.75466 z"
       id="path112613" />
    <path
       style="fill:#c8a92b;fill-opacity:1;stroke-width:0.0626121;stroke-linejoin:round;paint-order:fill markers stroke"
       d="m 43.568872,49.177124 c -4.870064,-0.321231 -9.896473,-0.78149 -14.246856,-1.30456 -1.13892,-0.136938 -2.499412,-0.295976 -3.023315,-0.353417 -0.523903,-0.05744 -0.952551,-0.160785 -0.952551,-0.229654 0,-0.189297 1.032124,-3.039925 1.151585,-3.180567 0.05727,-0.06742 1.749506,0.132804 3.760524,0.444952 9.839979,1.527353 16.807462,2.196312 20.848193,2.001668 4.604473,-0.221799 10.552301,-0.894918 17.714331,-2.004739 1.998226,-0.309643 3.651688,-0.544436 3.674362,-0.521763 0.02267,0.02267 0.300736,0.767311 0.617919,1.654751 0.675518,1.890015 0.950855,1.638841 -2.210109,2.016148 -5.606116,0.669171 -10.319929,1.102009 -15.406483,1.414677 -2.445067,0.150296 -9.996664,0.189869 -11.9276,0.0625 z"
       id="path1687"
       transform="scale(0.26458333)" />
  </g>
</svg>
